<svg width="305" height="283" viewBox="0 0 305 283" fill="none" xmlns="http://www.w3.org/2000/svg">
<path d="M15.6086 133.537C52.3955 133.537 84.2787 161.714 84.2787 205.818C84.2787 243.797 62.2063 283 11.9308 283C-40.797 283 -69 246.247 -69 182.541C-69 104.134 -21.1783 0 70.789 0V56.355C26.6447 56.355 3.34694 93.1082 -5.23667 137.212C0.894485 134.762 8.25125 133.537 15.6086 133.537ZM236.33 133.537C273.117 133.537 305 161.714 305 205.818C305 243.797 282.928 283 232.652 283C179.924 283 151.721 246.247 151.721 182.541C151.721 104.134 199.543 0 291.51 0V56.355C247.366 56.355 224.068 93.1082 215.485 137.212C221.616 134.762 228.973 133.537 236.33 133.537Z" fill="#F277C6"/>
</svg>
